<?xml version="1.0" encoding="iso-8859-1"?>
<!-- Generator: Adobe Illustrator 19.0.0, SVG Export Plug-In . SVG Version: 6.00 Build 0)  -->
<svg version="1.1" id="Capa_1" xmlns="http://www.w3.org/2000/svg" xmlns:xlink="http://www.w3.org/1999/xlink" x="0px" y="0px"
	 viewBox="0 0 511.968 511.968" style="enable-background:new 0 0 511.968 511.968;" xml:space="preserve">
<g>
	<g>
		<path d="M275.983,63.997h-55.996c-2.211,0-4,1.789-4,4v375.976c0,2.211,1.789,4,4,4h55.996c2.211,0,4-1.789,4-4V67.997
			C279.983,65.786,278.194,63.997,275.983,63.997z M271.984,439.973h-47.998V71.997h47.998V439.973z"/>
	</g>
</g>
<g>
	<g>
		<path d="M247.985,231.986c-8.969,0-15.999,10.543-15.999,23.999c0,13.46,7.03,23.998,15.999,23.998
			c8.968,0,15.999-10.538,15.999-23.998C263.984,242.528,256.953,231.986,247.985,231.986z M247.985,271.984
			c-3.773,0-8-6.843-8-15.999s4.227-15.999,8-15.999c3.773,0,7.999,6.843,7.999,15.999S251.758,271.984,247.985,271.984z"/>
	</g>
</g>
<g>
	<g>
		<path d="M247.985,295.983c-8.969,0-15.999,10.538-15.999,23.99c0,13.46,7.03,24.006,15.999,24.006
			c8.968,0,15.999-10.546,15.999-24.006C263.984,306.521,256.953,295.983,247.985,295.983z M247.985,335.98
			c-3.773,0-8-6.843-8-16.007c0-9.148,4.227-15.991,8-15.991c3.773,0,7.999,6.843,7.999,15.991
			C255.984,329.137,251.758,335.98,247.985,335.98z"/>
	</g>
</g>
<g>
	<g>
		<path d="M247.985,167.99c-8.969,0-15.999,10.542-15.999,23.999c0,13.457,7.03,23.999,15.999,23.999
			c8.968,0,15.999-10.542,15.999-23.999C263.984,178.532,256.953,167.99,247.985,167.99z M247.985,207.988
			c-3.773,0-8-6.843-8-15.999c0-9.156,4.227-15.999,8-15.999c3.773,0,7.999,6.843,7.999,15.999S251.758,207.988,247.985,207.988z"/>
	</g>
</g>
<g>
	<g>
		<path d="M477.049,120.142L277.061,64.145c-1.187-0.34-2.492-0.09-3.491,0.664c-1,0.758-1.586,1.938-1.586,3.188v375.976
			c0,1.25,0.586,2.43,1.586,3.188c0.702,0.531,1.554,0.812,2.413,0.812c0.359,0,0.727-0.047,1.078-0.148l199.988-55.996
			c1.726-0.485,2.921-2.055,2.921-3.852V123.993C479.97,122.2,478.775,120.626,477.049,120.142z M471.971,384.946L279.983,438.7
			V73.27l191.988,53.758V384.946z"/>
	</g>
</g>
<g>
	<g>
		<path d="M203.988,87.995H4c-2.211,0-4,1.79-4,4c0,2.211,1.789,4,4,4h199.988c2.21,0,3.999-1.789,3.999-4
			S206.198,87.995,203.988,87.995z"/>
	</g>
</g>
<g>
	<g>
		<path d="M203.988,415.975H4c-2.211,0-4,1.789-4,4s1.789,4,4,4h199.988c2.21,0,3.999-1.789,3.999-4
			S206.198,415.975,203.988,415.975z"/>
	</g>
</g>
<g>
	<g>
		<path d="M4,87.995c-2.211,0-4,1.79-4,4v327.98c0,2.211,1.789,4,4,4s4-1.789,4-4V91.995C8,89.784,6.211,87.995,4,87.995z"/>
	</g>
</g>
<g>
	<g>
		<path d="M507.969,87.995h-95.994c-2.211,0-4,1.79-4,4c0,2.211,1.789,4,4,4h95.994c2.21,0,3.999-1.789,3.999-4
			S510.179,87.995,507.969,87.995z"/>
	</g>
</g>
<g>
	<g>
		<path d="M507.969,87.995c-2.211,0-4,1.79-4,4v327.98c0,2.211,1.789,4,4,4c2.21,0,3.999-1.789,3.999-4V91.995
			C511.968,89.784,510.179,87.995,507.969,87.995z"/>
	</g>
</g>
<g>
	<g>
		<path d="M507.969,415.975h-95.994c-2.211,0-4,1.789-4,4s1.789,4,4,4h95.994c2.21,0,3.999-1.789,3.999-4
			S510.179,415.975,507.969,415.975z"/>
	</g>
</g>
<g>
	<g>
		<path d="M203.988,383.977H35.998c-2.211,0-4,1.789-4,4s1.789,4,4,4h167.99c2.21,0,3.999-1.789,3.999-4
			S206.198,383.977,203.988,383.977z"/>
	</g>
</g>
<g>
	<g>
		<path d="M35.998,119.993c-2.211,0-4,1.79-4,4v263.984c0,2.211,1.789,4,4,4s4-1.789,4-4V123.993
			C39.998,121.782,38.209,119.993,35.998,119.993z"/>
	</g>
</g>
<g>
	<g>
		<path d="M203.988,119.993H35.998c-2.211,0-4,1.79-4,4c0,2.211,1.789,4,4,4h167.99c2.21,0,3.999-1.789,3.999-4
			S206.198,119.993,203.988,119.993z"/>
	</g>
</g>
<g>
	<g>
		<path d="M331.972,291.984c-10.836,0-19.991-16.484-19.991-35.998c0-19.515,9.155-35.998,19.991-35.998c2.211,0,4-1.789,4-4
			s-1.789-4-4-4c-15.694,0-27.99,19.327-27.99,43.997s12.296,43.997,27.99,43.997c2.211,0,4-1.789,4-3.998
			C335.972,293.773,334.183,291.984,331.972,291.984z"/>
	</g>
</g>
<g>
	<g>
		<path d="M332.777,231.986c-8.399,0-12.797,12.074-12.797,23.999c0,11.929,4.399,23.998,12.797,23.998
			c0.828,0,83.197-7.085,83.197-23.998C415.974,239.075,333.605,231.986,332.777,231.986z M332.785,271.984
			c-1.125-0.18-4.805-5.516-4.805-15.999c0-10.522,3.688-15.835,4.797-15.999c8.905,0.004,67.895,8.785,74.878,15.996
			C400.656,263.196,341.698,271.976,332.785,271.984z"/>
	</g>
</g>
<g>
	<g>
		<path d="M351.323,223.983c-5.179-7.738-12.046-11.995-19.35-11.995c-2.211,0-4,1.789-4,4s1.789,4,4,4
			c4.547,0,9.053,3,12.694,8.441c0.773,1.156,2.039,1.777,3.328,1.777c0.765,0,1.539-0.219,2.226-0.676
			C352.057,228.303,352.55,225.819,351.323,223.983z"/>
	</g>
</g>
<g>
	<g>
		<path d="M350.22,282.443c-1.843-1.226-4.32-0.742-5.554,1.102c-3.64,5.438-8.147,8.438-12.694,8.438c-2.211,0-4,1.789-4,4
			c0,2.21,1.789,3.999,4,3.999c7.304,0,14.171-4.257,19.35-11.992C352.548,286.154,352.056,283.67,350.22,282.443z"/>
	</g>
</g>
<g>
	<g>
		<path d="M343.979,251.982c0-2.207-1.789-3.996-4-3.996c0,0,0,0-0.008,0c-2.202,0.003-3.991,1.793-3.991,4.003l0.008,8
			c0,2.207,1.789,3.996,3.999,3.996c2.211-0.004,4-1.793,4-4.003L343.979,251.982z"/>
	</g>
</g>
<g>
	<g>
		<path d="M19.999,431.974c-2.211,0-4,1.789-4,4v7.999c0,2.211,1.789,4,4,4s4-1.789,4-4v-7.999
			C23.999,433.763,22.21,431.974,19.999,431.974z"/>
	</g>
</g>
<g>
	<g>
		<path d="M91.995,439.973H19.999c-2.211,0-4,1.789-4,4s1.789,4,4,4h71.996c2.21,0,3.999-1.789,3.999-4
			S94.205,439.973,91.995,439.973z"/>
	</g>
</g>
<g>
	<g>
		<path d="M91.995,431.974c-2.211,0-4,1.789-4,4v7.999c0,2.211,1.789,4,4,4c2.21,0,3.999-1.789,3.999-4v-7.999
			C95.994,433.763,94.205,431.974,91.995,431.974z"/>
	</g>
</g>
<g>
	<g>
		<path d="M419.974,431.974c-2.211,0-4,1.789-4,4v7.999c0,2.211,1.789,4,4,4s4-1.789,4-4v-7.999
			C423.974,433.763,422.185,431.974,419.974,431.974z"/>
	</g>
</g>
<g>
	<g>
		<path d="M491.97,439.973h-71.996c-2.211,0-4,1.789-4,4s1.789,4,4,4h71.996c2.211,0,4-1.789,4-4S494.181,439.973,491.97,439.973z"
			/>
	</g>
</g>
<g>
	<g>
		<path d="M491.97,431.974c-2.211,0-4,1.789-4,4v7.999c0,2.211,1.789,4,4,4s4-1.789,4-4v-7.999
			C495.97,433.763,494.181,431.974,491.97,431.974z"/>
	</g>
</g>
<g>
	<g>
		<path d="M86.823,337.152c-1.562-1.562-4.094-1.562-5.656,0L49.169,369.15c-1.562,1.562-1.562,4.093,0,5.655
			c0.781,0.781,1.805,1.172,2.828,1.172s2.047-0.39,2.828-1.172l31.998-31.998C88.385,341.246,88.385,338.714,86.823,337.152z"/>
	</g>
</g>
<g>
	<g>
		<path d="M86.823,169.162l-31.998-31.998c-1.562-1.562-4.094-1.562-5.656,0s-1.562,4.094,0,5.656l31.998,31.998
			c0.781,0.781,1.805,1.172,2.828,1.172s2.047-0.39,2.828-1.172C88.385,173.255,88.385,170.724,86.823,169.162z"/>
	</g>
</g>
<g>
	<g>
		<path d="M203.988,167.99H83.995c-2.211,0-4,1.79-4,4c0,2.211,1.789,4,4,4h119.993c2.21,0,3.999-1.789,3.999-4
			S206.198,167.99,203.988,167.99z"/>
	</g>
</g>
<g>
	<g>
		<path d="M203.988,335.98H83.995c-2.211,0-4,1.789-4,4c0,2.21,1.789,3.999,4,3.999h119.993c2.21,0,3.999-1.789,3.999-3.999
			C207.987,337.769,206.198,335.98,203.988,335.98z"/>
	</g>
</g>
<g>
	<g>
		<path d="M83.995,183.989c-2.211,0-4,1.79-4,4v135.992c0,2.211,1.789,4,4,4s4-1.789,4-4V187.989
			C87.995,185.778,86.206,183.989,83.995,183.989z"/>
	</g>
</g>
<g>
	<g>
		<path d="M247.985,95.995c-2.211,0-4,1.789-4,4v39.997c0,2.211,1.789,4,4,4s4-1.789,4-4V99.995
			C251.985,97.784,250.196,95.995,247.985,95.995z"/>
	</g>
</g>
<g>
	<g>
		<path d="M247.985,367.978c-2.211,0-4,1.789-4,4v39.997c0,2.211,1.789,4,4,4s4-1.789,4-4v-39.997
			C251.985,369.767,250.196,367.978,247.985,367.978z"/>
	</g>
</g>
<g>
</g>
<g>
</g>
<g>
</g>
<g>
</g>
<g>
</g>
<g>
</g>
<g>
</g>
<g>
</g>
<g>
</g>
<g>
</g>
<g>
</g>
<g>
</g>
<g>
</g>
<g>
</g>
<g>
</g>
</svg>
