<svg id="Capa_1" enable-background="new 0 0 512 512" height="512" viewBox="0 0 512 512" width="512" xmlns="http://www.w3.org/2000/svg"><g><g><path d="m96.91 432.65h-39.22v-425.15h318.19v35.93" fill="#f5f8f9"/><path d="m136.12 468.57h-39.21v-35.92-389.22h278.97 39.21v35.92" fill="#d9e7ec"/><path d="m136.123 79.352h318.188v425.148h-318.188z" fill="#f5f8f9"/><path d="m136.12 79.35h70v425.15h-70z" fill="#e8edf2"/><g><path d="m181.647 120.111h233.443v74.996h-233.443z" fill="#5f99d7"/></g><path d="m181.647 231.667h101.353v96h-101.353z" fill="#f07281"/></g><g><path d="m454.31 145.6c4.142 0 7.5-3.358 7.5-7.5v-58.75c0-4.142-3.358-7.5-7.5-7.5h-31.72v-28.42c0-4.142-3.358-7.5-7.5-7.5h-31.71v-28.43c0-4.142-3.358-7.5-7.5-7.5h-130.5c-4.142 0-7.5 3.358-7.5 7.5s3.358 7.5 7.5 7.5h123v20.93h-271.47c-4.142 0-7.5 3.358-7.5 7.5v201.16c0 4.142 3.358 7.5 7.5 7.5s7.5-3.358 7.5-7.5v-193.66h303.18v20.92h-271.47c-4.142 0-7.5 3.358-7.5 7.5v381.72h-24.21v-183.79c0-4.142-3.358-7.5-7.5-7.5s-7.5 3.358-7.5 7.5v147.87h-24.22v-410.15h147.5c4.142 0 7.5-3.358 7.5-7.5s-3.358-7.5-7.5-7.5h-155c-4.142 0-7.5 3.358-7.5 7.5v425.15c0 4.142 3.358 7.5 7.5 7.5h31.72v28.42c0 4.142 3.358 7.5 7.5 7.5h31.71v28.43c0 4.142 3.358 7.5 7.5 7.5h318.19c4.142 0 7.5-3.358 7.5-7.5v-333.71c0-4.142-3.358-7.5-7.5-7.5s-7.5 3.358-7.5 7.5v326.21h-303.19v-410.15h303.19v51.25c0 4.142 3.358 7.5 7.5 7.5z"/><path d="m422.59 120.11c0-4.142-3.358-7.5-7.5-7.5h-233.443c-4.142 0-7.5 3.358-7.5 7.5v74.997c0 4.142 3.358 7.5 7.5 7.5h233.443c4.142 0 7.5-3.358 7.5-7.5zm-15 67.497h-218.443v-59.997h218.443z"/><path d="m290.5 231.667c0-4.142-3.358-7.5-7.5-7.5h-101.353c-4.142 0-7.5 3.358-7.5 7.5v96c0 4.142 3.358 7.5 7.5 7.5h101.353c4.142 0 7.5-3.358 7.5-7.5zm-15 88.5h-86.353v-81h86.353z"/><path d="m415.09 224.167h-92.756c-4.142 0-7.5 3.358-7.5 7.5s3.358 7.5 7.5 7.5h92.756c4.142 0 7.5-3.358 7.5-7.5s-3.358-7.5-7.5-7.5z"/><path d="m415.09 256.167h-92.756c-4.142 0-7.5 3.358-7.5 7.5s3.358 7.5 7.5 7.5h92.756c4.142 0 7.5-3.358 7.5-7.5s-3.358-7.5-7.5-7.5z"/><path d="m415.09 288.167h-92.756c-4.142 0-7.5 3.358-7.5 7.5s3.358 7.5 7.5 7.5h92.756c4.142 0 7.5-3.358 7.5-7.5s-3.358-7.5-7.5-7.5z"/><path d="m415.09 320.167h-92.756c-4.142 0-7.5 3.358-7.5 7.5s3.358 7.5 7.5 7.5h92.756c4.142 0 7.5-3.358 7.5-7.5s-3.358-7.5-7.5-7.5z"/><path d="m415.09 352.167h-92.756c-4.142 0-7.5 3.358-7.5 7.5s3.358 7.5 7.5 7.5h92.756c4.142 0 7.5-3.358 7.5-7.5s-3.358-7.5-7.5-7.5z"/><path d="m415.09 384.167h-92.756c-4.142 0-7.5 3.358-7.5 7.5s3.358 7.5 7.5 7.5h92.756c4.142 0 7.5-3.358 7.5-7.5s-3.358-7.5-7.5-7.5z"/><path d="m415.09 416.167h-92.756c-4.142 0-7.5 3.358-7.5 7.5s3.358 7.5 7.5 7.5h92.756c4.142 0 7.5-3.358 7.5-7.5s-3.358-7.5-7.5-7.5z"/><path d="m415.09 448.167h-92.756c-4.142 0-7.5 3.358-7.5 7.5s3.358 7.5 7.5 7.5h92.756c4.142 0 7.5-3.358 7.5-7.5s-3.358-7.5-7.5-7.5z"/><path d="m283 352.167h-101.353c-4.142 0-7.5 3.358-7.5 7.5s3.358 7.5 7.5 7.5h101.353c4.142 0 7.5-3.358 7.5-7.5s-3.358-7.5-7.5-7.5z"/><path d="m283 384.167h-101.353c-4.142 0-7.5 3.358-7.5 7.5s3.358 7.5 7.5 7.5h101.353c4.142 0 7.5-3.358 7.5-7.5s-3.358-7.5-7.5-7.5z"/><path d="m283 416.167h-101.353c-4.142 0-7.5 3.358-7.5 7.5s3.358 7.5 7.5 7.5h101.353c4.142 0 7.5-3.358 7.5-7.5s-3.358-7.5-7.5-7.5z"/><path d="m283 448.167h-101.353c-4.142 0-7.5 3.358-7.5 7.5s3.358 7.5 7.5 7.5h101.353c4.142 0 7.5-3.358 7.5-7.5s-3.358-7.5-7.5-7.5z"/></g></g></svg>