<svg id="Capa_1" enable-background="new 0 0 512 512" height="512" viewBox="0 0 512 512" width="512" xmlns="http://www.w3.org/2000/svg"><g><path d="m402.29 0v402.29h-402.29v-402.29h146.23l54.91 14 54.92-14z" fill="#ffda2d"/><path d="m402.29 0v402.29h-201.15v-388.29l54.92-14z" fill="#fcbe00"/><g fill="#ffa001"><path d="m68.857 309.857h98.857v30h-98.857z"/><path d="m68.857 241h49.431v30h-49.431z"/><path d="m256.06 0v141.53l-54.92-31.7-54.91 31.7v-141.53z"/></g><path d="m256.06 0v141.53l-54.92-31.7v-109.83z" fill="#f87f02"/><path d="m512 293.43v83.36c0 49.32-27.43 83.12-54.86 104.59-27.42 21.48-54.85 30.62-54.85 30.62s-109.72-36.57-109.72-135.21v-83.36c27.09 0 60.5-14.74 73.14-36.62h73.15c12.64 21.88 46.05 36.62 73.14 36.62z" fill="#83e470"/><path d="m512 293.43v83.36c0 49.32-27.43 83.12-54.86 104.59-27.42 21.48-54.85 30.62-54.85 30.62v-255.19h36.57c12.64 21.88 46.05 36.62 73.14 36.62z" fill="#01b763"/><path d="m459.7 346.72-57.41 57.42-9.94 9.94-47.47-47.47 21.21-21.21 26.26 26.25 9.94-9.94 36.2-36.2z" fill="#f3fdff"/><path d="m459.7 346.72-57.41 57.42v-42.43l36.2-36.2z" fill="#d7f3f7"/></g></svg>